<?xml version="1.0" standalone="no"?>
<!DOCTYPE svg PUBLIC "-//W3C//DTD SVG 20010904//EN"
 "http://www.w3.org/TR/2001/REC-SVG-20010904/DTD/svg10.dtd">
<svg version="1.0" xmlns="http://www.w3.org/2000/svg"
 width="40.000000pt" height="40.000000pt" viewBox="0 0 40.000000 40.000000"
 preserveAspectRatio="xMidYMid meet">

<g transform="translate(0.000000,40.000000) scale(0.100000,-0.100000)"
fill="#000000" stroke="none">
<path d="M81 354 c0 -11 3 -14 6 -6 3 7 2 16 -1 19 -3 4 -6 -2 -5 -13z"/>
<path d="M21 276 c-5 -22 -7 -44 -3 -50 7 -12 9 -18 11 -43 1 -14 4 -14 13 -5
10 10 10 15 2 20 -9 5 -8 10 1 19 7 7 17 8 26 2 11 -7 10 -9 -6 -9 -16 0 -12
-6 18 -31 21 -18 50 -56 64 -85 19 -41 30 -54 47 -53 20 0 20 1 1 9 -20 9 -20
9 1 9 11 1 25 -4 31 -10 7 -7 35 -8 82 -3 40 4 69 10 64 15 -13 13 -105 50
-98 39 7 -11 -34 -23 -66 -18 -17 2 -35 22 -64 70 -22 37 -51 80 -63 95 -13
16 -29 37 -36 48 -13 18 -15 17 -25 -19z"/>
</g>
</svg>
